<svg height="100%" stroke-miterlimit="10" style="fill-rule:nonzero;clip-rule:evenodd;stroke-linecap:round;stroke-linejoin:round;" version="1.1" viewBox="0 0 50 50" width="100%" xml:space="preserve" xmlns="http://www.w3.org/2000/svg" xmlns:vectornator="http://vectornator.io" xmlns:xlink="http://www.w3.org/1999/xlink">
<defs>
<clipPath id="TextBounds">
<rect height="36.5815" width="26.3489" x="11.8255" y="6.70926"/>
</clipPath>
</defs>
<g id="text" vectornator:layerName="text">
<path d="M25 3C12.8497 3 3 12.8497 3 25C3 37.1503 12.8497 47 25 47C37.1503 47 47 37.1503 47 25C47 12.8497 37.1503 3 25 3Z" fill="#871299" fill-rule="nonzero" opacity="1" stroke="none"/>
<g fill="#ffef83" opacity="1" stroke="none">
<path clip-path="url(#TextBounds)" d="M21.6609 23.4581C21.4004 22.9545 21.0531 22.5551 20.619 22.2599C20.1848 21.9647 19.6552 21.8171 19.03 21.8171C18.7348 21.8171 18.4353 21.8518 18.1314 21.9213C17.8275 21.9907 17.554 22.0992 17.3109 22.2469C17.0678 22.3945 16.8724 22.5811 16.7248 22.8069C16.5772 23.0326 16.5034 23.3105 16.5034 23.6404C16.5034 24.2135 16.7031 24.6302 17.1025 24.8907C17.5019 25.1512 18.101 25.3769 18.8998 25.568L20.645 25.9847C21.4959 26.1758 22.2035 26.5621 22.7679 27.1439C23.3323 27.7256 23.6145 28.4506 23.6145 29.3189C23.6145 29.9787 23.4799 30.5475 23.2107 31.025C22.9416 31.5026 22.5856 31.8933 22.1428 32.1972C21.7 32.5011 21.192 32.7225 20.619 32.8614C20.0459 33.0003 19.4642 33.0698 18.8737 33.0698C17.936 33.0698 17.0634 32.8918 16.2559 32.5358C15.4484 32.1798 14.7582 31.5677 14.1851 30.6994L15.6699 29.6835C16.0172 30.2392 16.4556 30.682 16.9853 31.012C17.5149 31.3419 18.1444 31.5069 18.8737 31.5069C19.2211 31.5069 19.5684 31.4678 19.9157 31.3897C20.263 31.3115 20.5712 31.19 20.8404 31.025C21.1095 30.86 21.3266 30.6473 21.4916 30.3868C21.6565 30.1264 21.739 29.8225 21.739 29.4752C21.739 28.8674 21.5133 28.4289 21.0618 28.1597C20.6103 27.8906 20.0633 27.6778 19.4208 27.5216L17.7537 27.1308C17.5453 27.0787 17.2631 26.9919 16.9071 26.8704C16.5511 26.7488 16.2038 26.5665 15.8652 26.3234C15.5266 26.0802 15.2357 25.7633 14.9926 25.3726C14.7495 24.9819 14.6279 24.5 14.6279 23.9269C14.6279 23.3018 14.7538 22.7548 15.0056 22.2859C15.2574 21.8171 15.5961 21.435 16.0215 21.1398C16.447 20.8446 16.9288 20.6232 17.4672 20.4756C18.0055 20.328 18.5612 20.2542 19.1342 20.2542C19.9851 20.2542 20.7752 20.4192 21.5046 20.7491C22.2339 21.079 22.7983 21.6434 23.1977 22.4422L21.6609 23.4581Z"/>
<path clip-path="url(#TextBounds)" d="M35.5885 26.662C35.5885 25.9847 35.48 25.3509 35.2629 24.7605C35.0458 24.1701 34.7376 23.6578 34.3382 23.2237C33.9388 22.7895 33.4569 22.4466 32.8925 22.1948C32.3282 21.943 31.69 21.8171 30.978 21.8171C30.266 21.8171 29.6148 21.943 29.0244 22.1948C28.434 22.4466 27.9217 22.7895 27.4876 23.2237C27.0534 23.6578 26.7148 24.1701 26.4717 24.7605C26.2286 25.3509 26.107 25.9847 26.107 26.662C26.107 27.3392 26.2286 27.9731 26.4717 28.5635C26.7148 29.1539 27.0534 29.6662 27.4876 30.1003C27.9217 30.5344 28.434 30.8774 29.0244 31.1292C29.6148 31.381 30.266 31.5069 30.978 31.5069C31.69 31.5069 32.3282 31.381 32.8925 31.1292C33.4569 30.8774 33.9388 30.5344 34.3382 30.1003C34.7376 29.6662 35.0458 29.1539 35.2629 28.5635C35.48 27.9731 35.5885 27.3392 35.5885 26.662ZM24.466 13.065L26.1852 13.065L26.1852 22.5985L26.2373 22.5985C26.5151 22.1817 26.8451 21.8257 27.2271 21.5305C27.6091 21.2353 28.0085 20.9922 28.4253 20.8012C28.8421 20.6102 29.2719 20.4713 29.7147 20.3844C30.1575 20.2976 30.5786 20.2542 30.978 20.2542C31.9331 20.2542 32.8057 20.4148 33.5958 20.7361C34.3859 21.0573 35.0675 21.5045 35.6406 22.0775C36.2136 22.6506 36.6608 23.3278 36.9821 24.1093C37.3033 24.8907 37.4639 25.7416 37.4639 26.662C37.4639 27.5823 37.3033 28.4332 36.9821 29.2147C36.6608 29.9961 36.2136 30.6734 35.6406 31.2464C35.0675 31.8195 34.3859 32.2666 33.5958 32.5879C32.8057 32.9091 31.9331 33.0698 30.978 33.0698C30.5786 33.0698 30.1575 33.0264 29.7147 32.9395C29.2719 32.8527 28.8421 32.7138 28.4253 32.5228C28.0085 32.3317 27.6091 32.0886 27.2271 31.7934C26.8451 31.4982 26.5151 31.1422 26.2373 30.7255L26.1852 30.7255L26.1852 32.7572L24.466 32.7572L24.466 13.065Z"/>
</g>
</g>
</svg>
